<svg width="32" height="32" viewBox="0 0 32 32" fill="none" xmlns="http://www.w3.org/2000/svg">
<circle cx="16" cy="16" r="16" fill="black"/>
<path d="M15.0241 23.338C14.6301 23.606 14.1257 23.8266 13.511 24C12.9121 24.1576 12.3053 24.2364 11.6906 24.2364C10.2879 24.2364 9.21612 23.937 8.47534 23.338C7.73457 22.7391 7.3563 21.7777 7.34054 20.4537V15.0398H5.30734V12.1791H7.34054V9.53122L11.3596 8.42006V12.1791H14.9059V15.0398H11.3596V19.7918C11.3596 20.8478 11.8798 21.3758 12.92 21.3758C13.5662 21.3758 14.1336 21.2024 14.6222 20.8556L15.0241 23.338ZM27.024 12.1791L22.7685 24H17.9692L13.7137 12.1791H17.9455L20.3806 21.4467L22.863 12.1791H27.024Z" fill="white"/>
</svg>
