<svg width="22" height="22" viewBox="0 0 22 22" fill="none" xmlns="http://www.w3.org/2000/svg">
<path d="M21.0625 0.0625H0.9375C0.453516 0.0625 0.0625 0.453516 0.0625 0.9375V21.0625C0.0625 21.5465 0.453516 21.9375 0.9375 21.9375H21.0625C21.5465 21.9375 21.9375 21.5465 21.9375 21.0625V0.9375C21.9375 0.453516 21.5465 0.0625 21.0625 0.0625ZM6.55117 18.7027H3.30547V8.26289H6.55117V18.7027ZM4.92969 6.83555C4.55761 6.83555 4.19389 6.72521 3.88452 6.5185C3.57515 6.31178 3.33403 6.01797 3.19164 5.67422C3.04925 5.33047 3.012 4.95221 3.08459 4.58728C3.15717 4.22236 3.33635 3.88715 3.59944 3.62405C3.86254 3.36095 4.19775 3.18178 4.56267 3.10919C4.9276 3.03661 5.30586 3.07386 5.64961 3.21625C5.99336 3.35864 6.28718 3.59976 6.49389 3.90913C6.7006 4.2185 6.81094 4.58222 6.81094 4.9543C6.8082 5.99336 5.96602 6.83555 4.92969 6.83555ZM18.7027 18.7027H15.4598V13.625C15.4598 12.4137 15.4379 10.8578 13.7727 10.8578C12.0855 10.8578 11.8258 12.1758 11.8258 13.5375V18.7027H8.58555V8.26289H11.6973V9.69023H11.741C12.173 8.86992 13.2313 8.00312 14.8117 8.00312C18.0984 8.00312 18.7027 10.166 18.7027 12.977V18.7027Z" fill="black"/>
</svg>
